{"title":"Homewrecker 2010 DvDRip H264 Feel-Free ","uid":5984287,"size":850022117,"categoryP":"video","categoryS":"movies","magnet":"?xt=urn:btih:f3839099dda277d2accc161e8c4f7dbbc59168cd&amp;dn=Homewrecker+2010+DvDRip+H264+Feel-Free+&amp;tr=udp%3A%2F%2Ftracker.openbittorrent.com%3A80&amp;tr=udp%3A%2F%2Fopen.demonii.com%3A1337&amp;tr=udp%3A%2F%2Ftracker.coppersurfer.tk%3A6969&amp;tr=udp%3A%2F%2Fexodus.desync.com%3A6969","seeders":0,"leechers":1,"uploader":"HeroMaster","files":-1,"time":1290683416,"description":"Homewrecker 2010 DvDRip H264 Feel-Free \n\nGenre:Biography | Comedy | Crime\nLanguage:English\nIMDb:http://www.imdb.com/title/tt1557769/\nSource:DVD\n\nGeneral:\n\nComplete name :Homewrecker 2010 DvDRip H264 Feel-Free\nFormat : MPEG-4\nFormat profile : Base Media\nCodec ID : mp42\nFile size : 809 MiB\nDuration : 1h 26mn\nOverall bit rate : 1 302 Kbps\n\nVideo #1\nCodec ID : avc1\nCodec ID/Info : Advanced Video Coding\nDuration : 1h 26mn\nBit rate mode : Variable\nBit rate : 917 Kbps\nWidth : 720 pixels\nHeight : 304 pixels\nDisplay aspect ratio : 2.35:1\nFrame rate mode : Constant\nFrame rate : 23.976 fps\nResolution : 24 bits\nColorimetry : 4:2:0\nScan type : Progressive\nBits/(Pixel*Frame) : 0.175\nStream size : 570 MiB (70%)\n\nAudio #2\nID : 2\nFormat : AAC\nFormat/Info : Advanced Audio Codec\nFormat version : Version 4\nFormat profile : LC\nFormat settings, SBR : No\nCodec ID : 40\nDuration : 1h 26mn\nBit rate mode : Constant\nBit rate : 384 Kbps\nChannel(s) : 6 channels\nChannel positions : Front: L C R, Rear: L R, LFE\nSampling rate : 48.0 KHz\nResolution : 16 bits\nStream size : 237 MiB (29%)\n\nPlot:\n\nMike is a locksmith. He's also a prisoner on work release, but you wouldn't know it. He's just trying to focus on his house calls and reconcile with his ex-girlfriend-until Margo hijacks his day.\n\n\nScreenshots:\n\n &lt;a href=&quot;\nhttp://www.leetleech.org/images/18748349328496772274.png&quot; rel=&quot;nofollow&quot; target=&quot;_NEW&quot;&gt;\nhttp://www.leetleech.org/images/18748349328496772274.png&lt;/a&gt;\n &lt;a href=&quot;\nhttp://www.leetleech.org/images/76278600894253825038.png&quot; rel=&quot;nofollow&quot; target=&quot;_NEW&quot;&gt;\nhttp://www.leetleech.org/images/76278600894253825038.png&lt;/a&gt;\n &lt;a href=&quot;\nhttp://www.leetleech.org/images/11410210907661785857.png&quot; rel=&quot;nofollow&quot; target=&quot;_NEW&quot;&gt;\nhttp://www.leetleech.org/images/11410210907661785857.png&lt;/a&gt;\n\n\nENJOY!","torrent":{"xt":"urn:btih:f3839099dda277d2accc161e8c4f7dbbc59168cd","amp;dn":"Homewrecker+2010+DvDRip+H264+Feel-Free+","amp;tr":["udp%3A%2F%2Ftracker.openbittorrent.com%3A80","udp%3A%2F%2Fopen.demonii.com%3A1337","udp%3A%2F%2Ftracker.coppersurfer.tk%3A6969","udp%3A%2F%2Fexodus.desync.com%3A6969"],"infoHash":"f3839099dda277d2accc161e8c4f7dbbc59168cd","infoHashBuffer":{"type":"Buffer","data":[243,131,144,153,221,162,119,210,172,204,22,30,140,79,125,187,197,145,104,205]},"announce":[],"urlList":[]}}